<svg width="1920" height="2751" viewBox="0 0 1920 2751" fill="none" xmlns="http://www.w3.org/2000/svg">
<path d="M-97.2363 -0.231445L739.719 482.985L739.584 739.684" stroke="#0099FF" stroke-width="2"/>
<path d="M-97.2363 2750.96L739.719 2267.74L739.584 2011.04" stroke="#0099FF" stroke-width="2"/>
<path d="M519.478 866.525L739.756 739.427L959.969 866.567L960.039 1120.88L739.682 1248.12L519.469 1120.98" stroke="#0099FF" stroke-width="2"/>
<path d="M2017.24 -0.231445L1180.28 482.985L1180.42 739.684" stroke="#0099FF" stroke-width="2"/>
<path d="M519.478 1629.61L739.756 1502.52L959.969 1629.66L960.039 1883.97L739.682 2011.21L519.469 1884.07" stroke="#0099FF" stroke-width="2"/>
<path d="M2017.24 2750.96L1180.28 2267.74L1180.42 2011.04" stroke="#0099FF" stroke-width="2"/>
<path d="M1400.52 866.525L1180.24 739.427L960.03 866.567L959.96 1120.88L1180.32 1248.12L1400.53 1120.98" stroke="#0099FF" stroke-width="2"/>
<path d="M1400.52 1629.61L1180.24 1502.52L960.03 1629.66L959.96 1883.97L1180.32 2011.21L1400.53 1884.07" stroke="#0099FF" stroke-width="2"/>
<path d="M1180.38 1248.12L960.165 1120.98L739.887 1248.07L739.878 1502.52L960.091 1629.66L1180.45 1502.43L1180.38 1248.12Z" stroke="#0099FF" stroke-width="2"/>
</svg>
