<svg width="740" height="801" viewBox="0 0 740 801" fill="none" xmlns="http://www.w3.org/2000/svg">
<g clip-path="url(#clip0_90_1483)">
<path d="M355.392 217.865H303.324L277.274 262.956L303.324 308.079H355.392L381.442 262.956L355.392 217.865Z" stroke="white" stroke-width="3"/>
<path d="M352.476 222.918H306.24L283.108 262.958L306.24 303.027H352.476L375.608 262.958L352.476 222.918Z" fill="#D9D9D9" fill-opacity="0.2" stroke="#0099FF"/>
<path d="M310.993 241.589C311.208 241.661 311.424 241.661 311.64 241.805C312.862 242.452 313.365 243.746 312.718 244.896C312.574 245.183 312.358 245.399 312.143 245.615C310.49 247.34 309.196 249.28 308.118 251.365C307.04 253.449 306.321 255.606 305.818 257.834C305.53 259.128 305.386 260.421 305.314 261.715C305.243 263.153 305.314 264.59 305.458 266.1C305.818 268.831 306.536 271.419 307.686 273.863C308.836 276.306 310.346 278.463 312.143 280.475C312.358 280.763 312.646 280.978 312.79 281.338C313.149 282.2 313.005 283.135 312.287 283.782C311.927 284.069 311.496 284.357 311.065 284.429C311.065 284.429 311.065 284.429 310.993 284.429C310.849 284.429 310.633 284.429 310.49 284.429H310.418C310.058 284.357 309.771 284.213 309.483 283.997C309.268 283.782 309.052 283.566 308.836 283.35C306.824 281.122 305.171 278.678 303.877 276.019C302.439 273 301.505 269.766 301.074 266.459C300.858 264.878 300.786 263.368 300.858 261.787C300.93 260.206 301.146 258.553 301.433 256.971C301.936 254.456 302.799 252.012 303.877 249.712C305.171 246.98 306.896 244.536 308.98 242.38C309.196 242.164 309.483 241.877 309.771 241.733C309.986 241.661 310.202 241.589 310.346 241.518C310.633 241.589 310.777 241.589 310.993 241.589Z" fill="#00F0FF"/>
<path d="M347.722 284.357C347.434 284.285 347.219 284.213 346.931 284.141C345.709 283.495 345.422 282.273 345.925 281.195C346.069 280.907 346.284 280.763 346.5 280.548C348.153 278.823 349.447 276.954 350.525 274.869C351.603 272.785 352.394 270.557 352.897 268.257C353.185 266.963 353.328 265.597 353.4 264.231C353.472 263.081 353.4 262.003 353.328 260.853C353.041 257.834 352.25 254.887 350.956 252.156C349.806 249.568 348.297 247.34 346.356 245.399C346.069 245.112 345.781 244.752 345.709 244.249C345.494 243.387 345.925 242.452 346.716 241.949C347.003 241.734 347.291 241.662 347.65 241.59H347.722C347.866 241.59 348.081 241.59 348.225 241.59C348.225 241.59 348.225 241.59 348.297 241.59C348.656 241.662 349.016 241.805 349.231 242.021C349.447 242.237 349.735 242.452 349.95 242.74C351.963 244.896 353.616 247.34 354.91 250C356.347 253.018 357.282 256.253 357.713 259.631C357.857 261.141 357.929 262.65 357.857 264.159C357.785 265.813 357.569 267.466 357.21 269.119C356.635 271.85 355.7 274.438 354.407 276.954C353.113 279.469 351.46 281.77 349.447 283.782C349.231 283.998 348.944 284.141 348.656 284.213C348.513 284.213 348.441 284.285 348.297 284.285C348.081 284.357 347.866 284.357 347.722 284.357Z" fill="#00F0FF"/>
<path d="M349.662 263.009C349.662 266.316 348.943 269.407 347.506 272.354C346.5 274.438 345.278 276.307 343.696 277.96C343.553 278.104 343.409 278.319 343.193 278.391C342.403 279.038 341.181 278.966 340.462 278.248C340.174 277.96 339.887 277.673 339.815 277.241C339.599 276.451 339.743 275.732 340.318 275.157C342.546 272.857 344.056 270.197 344.775 267.107C345.062 265.956 345.206 264.806 345.278 263.656C345.35 260.781 344.775 258.122 343.553 255.534C342.69 253.809 341.612 252.228 340.246 250.862C339.456 250.071 339.527 248.634 340.39 247.843C340.749 247.556 341.109 247.34 341.54 247.196C342.259 247.053 342.906 247.196 343.409 247.771C345.709 250.143 347.434 252.875 348.512 255.965C348.943 257.259 349.303 258.625 349.518 259.991C349.662 260.853 349.734 261.716 349.734 262.65C349.662 262.722 349.662 262.866 349.662 263.009Z" fill="#00F0FF"/>
<path d="M316.671 247.125C317.246 247.125 317.749 247.341 318.18 247.772C318.54 248.131 318.827 248.491 318.899 248.994C319.043 249.713 318.827 250.36 318.324 250.863C315.952 253.378 314.371 256.253 313.724 259.704C313.508 260.638 313.436 261.644 313.436 262.579C313.364 266.963 314.802 270.845 317.605 274.223C317.893 274.582 318.18 274.87 318.468 275.157C319.258 275.948 319.186 277.314 318.396 278.104C318.036 278.392 317.677 278.679 317.174 278.751C316.455 278.895 315.808 278.751 315.305 278.176C313.005 275.876 311.352 273.145 310.274 270.054C309.77 268.616 309.411 267.107 309.267 265.598C309.195 264.807 309.124 264.088 309.124 263.298C309.052 259.632 309.914 256.253 311.567 253.019C312.574 251.078 313.796 249.353 315.305 247.844C315.593 247.341 316.096 247.125 316.671 247.125Z" fill="#00F0FF"/>
<path d="M317.175 262.938C317.247 259.416 318.397 256.325 320.84 253.665C320.984 253.522 321.128 253.306 321.344 253.162C322.134 252.443 323.428 252.443 324.219 253.162C324.578 253.45 324.794 253.809 324.937 254.24C325.153 255.031 324.937 255.678 324.362 256.253C322.925 257.69 322.062 259.344 321.703 261.284C321.344 263.153 321.631 264.95 322.422 266.747C322.853 267.753 323.5 268.616 324.291 269.407C325.369 270.485 325.081 272.21 323.716 272.929C323.141 273.216 322.494 273.36 321.847 273.072C321.487 272.929 321.272 272.641 320.984 272.354C319.619 270.916 318.54 269.263 317.893 267.394C317.462 266.1 317.175 264.734 317.103 263.369C317.175 263.297 317.175 263.081 317.175 262.938Z" fill="#00F0FF"/>
<path d="M341.54 263.009C341.468 266.603 340.246 269.693 337.802 272.353C337.658 272.497 337.515 272.64 337.371 272.784C336.652 273.503 335.358 273.431 334.568 272.712C334.28 272.425 333.993 272.065 333.849 271.634C333.633 270.843 333.849 270.125 334.424 269.478C335.502 268.4 336.221 267.178 336.724 265.74C337.443 263.44 337.299 261.212 336.293 259.055C335.79 258.049 335.215 257.187 334.424 256.396C333.705 255.677 333.561 254.599 334.136 253.736C334.64 252.946 335.718 252.443 336.58 252.73C336.94 252.802 337.227 253.018 337.515 253.305C339.527 255.318 340.821 257.69 341.396 260.493C341.468 261.356 341.54 262.146 341.54 263.009Z" fill="#00F0FF"/>
<path d="M329.321 258.266C331.693 258.194 333.921 260.206 334.065 262.65C334.209 265.238 332.124 267.538 329.465 267.682C327.165 267.753 324.793 265.956 324.649 263.153C324.577 260.781 326.59 258.266 329.321 258.266Z" fill="#00F0FF"/>
<path d="M509.201 222.918H462.965L439.833 262.958L462.965 303.027H509.201L532.332 262.958L509.201 222.918Z" fill="#D9D9D9" fill-opacity="0.2" stroke="#0099FF"/>
<path d="M512.117 217.865H460.049L433.999 262.956L460.049 308.079H512.117L538.166 262.956L512.117 217.865Z" stroke="white" stroke-width="3"/>
<path d="M485.917 238.713C487.086 239.798 488.172 240.801 489.341 241.803C495.353 247.314 501.282 252.742 507.295 258.254C507.629 258.504 507.712 258.838 507.712 259.256C507.712 261.26 507.712 263.181 507.712 265.185C506.71 265.185 505.708 265.185 504.706 265.185C504.706 265.101 504.706 265.018 504.706 264.934C504.706 263.348 504.706 261.761 504.706 260.258C504.706 260.174 504.623 260.007 504.539 259.924C498.359 254.245 492.18 248.567 486 242.805L485.917 242.721C485.833 242.721 485.833 242.805 485.75 242.805C479.57 248.483 473.391 254.162 467.211 259.84C467.128 259.924 467.044 260.091 467.044 260.174C467.044 261.844 467.044 263.515 467.044 265.185C466.042 265.185 465.04 265.185 464.038 265.185C464.038 265.101 464.038 265.018 464.038 264.934C464.038 262.93 464.038 260.926 464.038 258.922C464.038 258.755 464.121 258.588 464.205 258.504C470.134 253.076 476.146 247.648 482.075 242.137C483.245 241.051 484.414 239.966 485.583 238.88C485.75 238.796 485.833 238.796 485.917 238.713Z" fill="#00F0FF"/>
<path d="M464.12 287.231C464.12 283.808 464.12 280.467 464.12 277.127C465.122 277.127 466.04 277.127 467.126 277.127C467.126 279.465 467.126 281.887 467.126 284.225C479.652 284.225 492.178 284.225 504.788 284.225C504.788 281.887 504.788 279.465 504.788 277.127C505.79 277.127 506.792 277.127 507.794 277.127C507.794 280.467 507.794 283.891 507.794 287.231C493.18 287.231 478.65 287.231 464.12 287.231Z" fill="#00F0FF"/>
<path d="M485.749 267.273C485.833 266.939 485.916 266.605 486 266.271C486.584 264.099 487.67 262.262 489.34 260.676C490.76 259.423 492.346 258.588 494.184 258.254C495.019 258.087 495.854 258.003 496.772 257.92C496.856 257.92 497.023 258.003 497.106 258.087C497.44 258.504 497.774 258.839 497.941 259.34C498.86 261.093 499.027 263.014 499.027 264.935C498.526 264.851 497.941 264.684 497.44 264.601C494.184 264.099 491.177 264.768 488.672 267.022C488.589 267.106 488.505 267.189 488.422 267.189C488.254 267.44 488.004 267.523 487.67 267.44C487.085 267.44 486.417 267.356 485.749 267.273Z" fill="#00F0FF"/>
<path d="M490.509 281.637C490.843 280.384 491.011 279.131 491.011 277.879C490.927 275.29 490.175 273.035 488.338 271.115C488.004 270.781 487.921 270.447 488.004 270.029C488.088 269.444 488.171 268.86 488.255 268.275C488.505 268.359 488.756 268.359 489.006 268.442C491.178 269.027 493.182 270.113 494.685 271.783C496.104 273.369 496.94 275.207 497.274 277.294C497.357 277.962 497.441 278.547 497.441 279.215C497.441 279.382 497.441 279.549 497.274 279.632C496.689 280.217 495.937 280.635 495.102 280.885C493.683 281.47 492.096 281.637 490.509 281.637Z" fill="#00F0FF"/>
<path d="M482.242 256.416C481.908 257.251 481.741 258.003 481.741 258.838C481.49 261.928 482.242 264.683 484.413 267.021C484.58 267.188 484.663 267.356 484.663 267.606C484.58 268.274 484.496 268.942 484.413 269.61C483.411 269.443 482.492 269.109 481.574 268.692C479.402 267.69 477.649 266.103 476.48 263.932C475.812 262.679 475.478 261.343 475.311 259.923C475.227 259.506 475.227 259.088 475.227 258.671C475.227 258.587 475.311 258.42 475.394 258.337C476.062 257.669 476.897 257.251 477.732 257.001C479.152 256.583 480.655 256.416 482.158 256.416C482.075 256.416 482.158 256.416 482.242 256.416Z" fill="#00F0FF"/>
<path d="M473.807 273.285C476.98 274.538 481.155 273.87 483.744 271.699C483.995 271.532 484.162 271.281 484.412 271.114C484.496 270.947 484.663 270.947 484.83 270.947C485.498 271.031 486.249 271.114 487.001 271.198C486.917 271.532 486.834 271.866 486.75 272.2C485.999 274.705 484.663 276.876 482.408 278.379C481.072 279.298 479.569 279.883 477.982 280.133C477.314 280.217 476.729 280.3 476.061 280.3C475.978 280.3 475.811 280.217 475.727 280.217C475.059 279.549 474.642 278.713 474.391 277.878C473.89 276.459 473.807 274.956 473.807 273.452C473.807 273.369 473.807 273.369 473.807 273.285Z" fill="#00F0FF"/>
<path d="M471.469 267.523C471.636 267.105 471.803 266.771 471.97 266.354C473.139 267.773 474.225 269.109 475.394 270.445C473.64 270.779 471.887 271.03 470.05 271.364C470.217 270.946 470.384 270.529 470.467 270.111C467.461 269.276 462.534 269.527 459.444 273.285C458.693 272.784 458.025 272.199 457.273 271.698C457.44 271.447 457.607 271.28 457.774 271.113C459.695 269.109 462.033 267.857 464.705 267.356C466.876 266.938 469.131 267.022 471.302 267.606C471.386 267.523 471.386 267.523 471.469 267.523Z" fill="#00F0FF"/>
<path d="M510.3 268.859C510.05 268.525 509.799 268.274 509.549 267.94C511.302 267.606 513.056 267.356 514.893 267.021C514.225 268.692 513.557 270.362 512.889 272.115C512.639 271.781 512.304 271.447 512.054 271.03C511.97 271.03 511.887 271.113 511.887 271.113C509.632 272.199 507.294 272.616 504.872 272.366C502.367 272.199 500.029 271.447 497.858 270.362C497.774 270.362 497.774 270.278 497.691 270.278C498.108 269.443 498.442 268.692 498.86 267.857C499.611 268.191 500.363 268.441 501.031 268.775C502.701 269.36 504.455 269.777 506.292 269.777C507.628 269.777 508.881 269.527 510.05 269.026C510.05 268.942 510.133 268.942 510.3 268.859Z" fill="#00F0FF"/>
<path d="M433.653 263.727H381.585L355.535 308.818L381.585 353.941H433.653L459.703 308.818L433.653 263.727Z" stroke="white" stroke-width="3"/>
<path d="M430.111 269.863H385.127L362.621 308.82L385.127 347.805H430.111L452.617 308.82L430.111 269.863Z" fill="#D9D9D9" fill-opacity="0.2" stroke="#0099FF"/>
<path d="M431.392 317.509C428.296 317.509 425.193 317.509 422.097 317.517C420.912 317.517 419.719 317.517 418.534 317.517C418.434 317.517 418.326 317.517 418.204 317.517C418.196 317.43 418.182 317.358 418.182 317.285C418.182 316.114 418.189 314.943 418.175 313.772C418.175 313.555 418.254 313.512 418.448 313.519C419.015 313.526 419.583 313.519 420.158 313.519C420.158 311.09 420.158 308.675 420.158 306.239C417.744 306.239 415.338 306.239 412.91 306.239C412.91 306.875 412.91 307.525 412.91 308.191C411.581 308.191 410.281 308.191 408.952 308.191C408.952 303.781 408.952 299.363 408.952 294.932C410.259 294.932 411.559 294.932 412.888 294.932C412.888 295.575 412.888 296.218 412.888 296.905C412.996 296.905 413.075 296.905 413.154 296.905C416.817 296.905 420.474 296.905 424.137 296.905C427.046 296.905 429.417 299.284 429.417 302.205C429.417 305.855 429.417 309.506 429.417 313.15C429.417 313.258 429.417 313.374 429.417 313.497C430.099 313.497 430.746 313.497 431.399 313.497C431.392 314.842 431.392 316.172 431.392 317.509Z" fill="#00F0FF"/>
<path d="M383.839 285.619C388.228 285.619 392.624 285.619 397.035 285.619C397.035 286.942 397.035 288.258 397.035 289.595C396.388 289.595 395.742 289.595 395.081 289.595C395.081 292.039 395.081 294.446 395.081 296.883C397.487 296.883 399.894 296.883 402.322 296.883C402.322 296.254 402.322 295.603 402.322 294.938C403.658 294.938 404.965 294.938 406.294 294.938C406.294 299.348 406.294 303.758 406.294 308.19C404.987 308.19 403.679 308.19 402.343 308.19C402.343 307.539 402.343 306.888 402.343 306.216C401.769 306.216 401.223 306.216 400.67 306.216C397.48 306.216 394.298 306.216 391.109 306.216C388.192 306.216 385.822 303.838 385.822 300.895C385.822 297.244 385.822 293.593 385.822 289.95C385.822 289.841 385.822 289.733 385.822 289.574C385.14 289.574 384.493 289.574 383.839 289.574C383.839 288.258 383.839 286.935 383.839 285.619Z" fill="#00F0FF"/>
<path d="M424.798 320.812C425.351 321.76 425.883 322.642 426.386 323.538C427.075 324.767 427.7 326.025 428.174 327.355C428.886 329.322 427.708 331.36 425.897 331.96C425.761 332.004 425.61 332.025 425.466 332.033C425.093 332.04 424.726 332.011 424.353 332.04C423.671 332.098 423.11 331.816 422.593 331.425C421.451 330.565 420.654 328.982 421.472 326.994C422.155 325.324 423.017 323.748 423.943 322.208C424.209 321.752 424.489 321.319 424.798 320.812Z" fill="#00F0FF"/>
<path d="M355.392 308.035H303.324L277.274 353.126L303.324 398.249H355.392L381.442 353.126L355.392 308.035Z" stroke="white" stroke-width="3"/>
<path d="M352.059 313.811H306.657L283.942 353.129L306.657 392.476H352.059L374.774 353.129L352.059 313.811Z" fill="#D9D9D9" fill-opacity="0.2" stroke="#0099FF"/>
<path d="M329.395 342.457C332.681 342.457 335.978 342.502 339.264 342.434C340.845 342.4 341.67 343.507 341.67 344.828C341.647 350.283 341.636 355.737 341.67 361.191C341.681 362.478 340.721 363.585 339.276 363.574C332.636 363.528 325.996 363.551 319.356 363.551C317.956 363.551 317.063 362.67 317.063 361.281C317.063 355.771 317.063 350.26 317.063 344.749C317.063 343.293 317.877 342.457 319.311 342.457C322.676 342.457 326.03 342.468 329.395 342.457ZM327.994 355.929C327.994 356.267 327.994 356.606 327.994 356.945C327.994 357.306 327.983 357.656 327.994 358.018C328.04 359.023 328.661 359.554 329.609 359.429C330.276 359.339 330.716 358.752 330.716 357.894C330.716 356.618 330.727 355.342 330.705 354.065C330.705 353.715 330.784 353.49 331.089 353.275C332.048 352.609 332.444 351.242 332.06 350.113C331.631 348.86 330.547 348.171 329.316 348.148C328.175 348.126 326.978 349.029 326.639 350.057C326.244 351.265 326.662 352.575 327.644 353.331C327.814 353.467 327.949 353.738 327.961 353.964C328.028 354.608 327.994 355.262 327.994 355.929Z" fill="#00F0FF"/>
<path d="M338.497 341.508C337.086 341.508 335.731 341.508 334.33 341.508C334.33 340.514 334.274 339.532 334.342 338.56C334.5 336.223 332.761 334.732 331.067 334.315C328.933 333.784 326.968 334.055 325.353 335.681C324.709 336.325 324.382 337.149 324.382 338.064C324.37 339.193 324.382 340.322 324.382 341.485C323.004 341.485 321.649 341.485 320.26 341.485C320.249 341.372 320.215 341.248 320.215 341.124C320.271 339.532 320.125 337.905 320.429 336.358C320.971 333.569 322.869 331.751 325.421 330.678C328.334 329.459 331.293 329.538 334.082 331.062C336.916 332.621 338.565 334.969 338.508 338.335C338.486 339.373 338.497 340.401 338.497 341.508Z" fill="#00F0FF"/>
<path d="M307.714 366.464C307.714 365.244 307.714 364.081 307.714 362.918C307.714 361.597 308.606 360.694 309.939 360.682C310.82 360.671 311.712 360.671 312.592 360.682C312.931 360.682 313.18 360.637 313.394 360.321C313.778 359.779 314.354 359.655 314.93 359.881C315.528 360.118 315.799 360.547 315.777 361.247C315.754 361.845 315.416 362.263 314.783 362.455C314.252 362.613 313.71 362.387 313.304 361.902C313.18 361.755 312.954 361.631 312.773 361.62C311.757 361.597 310.74 361.597 309.724 361.608C309.081 361.62 308.651 362.026 308.64 362.647C308.629 363.799 308.651 364.94 308.629 366.091C308.618 366.498 308.877 366.532 309.126 366.645C310.21 367.096 310.82 368.316 310.537 369.468C310.255 370.62 309.069 371.455 307.917 371.32C306.743 371.184 305.783 370.213 305.727 368.971C305.682 367.988 306.235 366.972 307.398 366.543C307.477 366.532 307.567 366.509 307.714 366.464ZM308.166 370.405C309.081 370.405 309.747 369.761 309.735 368.869C309.724 368.045 309.024 367.334 308.2 367.322C307.33 367.311 306.63 367.988 306.619 368.869C306.607 369.773 307.251 370.405 308.166 370.405Z" fill="#00F0FF"/>
<path d="M350.997 364.42C350.997 364.669 351.009 364.906 350.997 365.154C350.941 365.911 350.941 366.51 351.889 366.894C352.872 367.3 353.222 368.666 352.861 369.671C352.477 370.733 351.426 371.422 350.32 371.331C349.281 371.241 348.31 370.36 348.152 369.344C347.96 368.136 348.536 367.085 349.665 366.634C349.97 366.51 350.094 366.351 350.083 366.024C350.06 364.951 350.083 363.878 350.071 362.806C350.071 362.027 349.676 361.631 348.897 361.62C347.915 361.62 346.943 361.597 345.961 361.631C345.758 361.643 345.509 361.778 345.385 361.936C344.832 362.614 343.928 362.715 343.307 362.139C342.81 361.688 342.788 360.683 343.273 360.197C343.872 359.599 344.764 359.621 345.295 360.31C345.532 360.615 345.78 360.705 346.142 360.694C347.022 360.671 347.915 360.683 348.795 360.694C350.094 360.705 350.986 361.609 350.997 362.896C351.009 363.404 350.997 363.912 350.997 364.42ZM352.093 368.915C352.104 368.045 351.426 367.323 350.568 367.289C349.789 367.255 348.987 368.045 348.976 368.87C348.965 369.683 349.676 370.417 350.501 370.451C351.359 370.484 352.081 369.796 352.093 368.915Z" fill="#00F0FF"/>
<path d="M338.18 371.59C339.174 371.872 339.84 372.516 340.1 373.566C340.427 374.876 339.287 376.401 337.943 376.434C336.588 376.468 335.583 375.768 335.289 374.571C335.007 373.419 335.639 372.279 336.881 371.737C337.153 371.613 337.288 371.488 337.277 371.161C337.254 370.122 337.277 369.094 337.265 368.055C337.254 367.186 336.802 366.734 335.944 366.723C335.063 366.712 334.183 366.723 333.291 366.712C332.929 366.7 332.669 366.791 332.444 367.118C332.105 367.615 331.529 367.773 330.987 367.581C330.456 367.389 330.095 367.028 330.05 366.429C329.993 365.82 330.242 365.368 330.772 365.074C331.337 364.758 332.071 364.916 332.466 365.492C332.681 365.797 332.918 365.876 333.257 365.876C334.194 365.865 335.131 365.865 336.08 365.865C337.265 365.876 338.09 366.712 338.101 367.886C338.112 369.072 338.112 370.258 338.112 371.443C338.146 371.488 338.158 371.522 338.18 371.59ZM339.23 373.995C339.23 373.092 338.564 372.448 337.649 372.471C336.825 372.482 336.114 373.205 336.114 374.018C336.114 374.853 336.87 375.599 337.706 375.587C338.609 375.565 339.242 374.921 339.23 373.995Z" fill="#00F0FF"/>
<path d="M321.434 369.603C321.434 369.795 321.445 369.976 321.434 370.168C321.366 370.992 321.4 371.624 322.382 372.065C323.399 372.516 323.704 373.838 323.308 374.91C322.924 375.949 321.886 376.548 320.632 376.435C319.672 376.344 318.769 375.441 318.577 374.391C318.396 373.397 318.995 372.245 320.011 371.828C320.463 371.636 320.621 371.41 320.61 370.924C320.564 369.908 320.587 368.891 320.598 367.875C320.61 366.735 321.445 365.899 322.586 365.888C323.523 365.876 324.46 365.876 325.409 365.888C325.77 365.899 326.03 365.82 326.244 365.492C326.583 364.996 327.193 364.838 327.758 365.007C328.221 365.142 328.627 365.673 328.661 366.193C328.695 366.814 328.413 367.288 327.848 367.536C327.261 367.796 326.64 367.604 326.177 367.085C326.019 366.904 325.736 366.757 325.499 366.746C324.596 366.712 323.692 366.723 322.789 366.735C321.897 366.746 321.456 367.186 321.434 368.09C321.423 368.587 321.434 369.095 321.434 369.603ZM319.48 374.052C319.492 374.933 320.147 375.588 321.016 375.588C321.863 375.588 322.62 374.843 322.608 374.018C322.597 373.171 321.863 372.46 321.005 372.471C320.101 372.471 319.469 373.137 319.48 374.052Z" fill="#00F0FF"/>
<path d="M353.966 355.871C352.939 355.871 352.069 355.295 351.719 354.324C351.584 353.963 351.414 353.839 351.03 353.839C349.416 353.85 347.801 353.85 346.175 353.839C345.836 353.839 345.599 353.906 345.373 354.211C344.831 354.956 343.95 355.002 343.329 354.403C342.787 353.872 342.798 352.958 343.352 352.438C343.973 351.874 344.865 351.998 345.429 352.687C345.565 352.845 345.813 352.992 346.005 352.992C347.699 353.014 349.393 352.992 351.087 353.014C351.426 353.014 351.572 352.901 351.697 352.585C352.114 351.512 353.199 350.846 354.215 350.993C355.355 351.151 356.27 352.02 356.406 353.172C356.564 354.55 355.502 355.849 353.966 355.871ZM355.491 353.409C355.491 352.517 354.87 351.896 353.966 351.896C353.074 351.896 352.352 352.585 352.363 353.432C352.374 354.268 353.131 355.013 353.955 355.013C354.825 355.013 355.502 354.302 355.491 353.409Z" fill="#00F0FF"/>
<path d="M304.834 350.971C305.862 351.061 306.641 351.569 307.036 352.574C307.16 352.902 307.319 353.003 307.646 353.003C309.317 352.992 311 353.015 312.671 352.981C312.886 352.981 313.157 352.823 313.304 352.653C313.879 351.987 314.794 351.885 315.381 352.45C315.923 352.981 315.923 353.895 315.37 354.415C314.749 355.002 313.902 354.889 313.304 354.189C313.145 354.008 312.852 353.85 312.626 353.85C310.989 353.828 309.351 353.85 307.714 353.839C307.341 353.839 307.16 353.952 307.014 354.313C306.562 355.431 305.557 356.007 304.428 355.86C303.355 355.725 302.485 354.821 302.316 353.67C302.113 352.348 303.389 350.959 304.834 350.971ZM303.219 353.387C303.208 354.313 303.829 354.991 304.71 355.025C305.534 355.047 306.336 354.257 306.336 353.421C306.336 352.597 305.625 351.919 304.767 351.908C303.863 351.885 303.231 352.495 303.219 353.387Z" fill="#00F0FF"/>
<path d="M276.809 263.727H224.741L198.691 308.818L224.741 353.941H276.809L302.859 308.818L276.809 263.727Z" stroke="white" stroke-width="3"/>
<path d="M273.446 269.555H228.104L205.42 308.821L228.104 348.115H273.446L296.13 308.821L273.446 269.555Z" fill="#D9D9D9" fill-opacity="0.2" stroke="#0099FF"/>
<path d="M247.547 308.345C244.815 308.345 242.134 308.345 239.402 308.345C239.471 308.207 239.514 308.106 239.564 308.006C243.515 300.415 247.466 292.831 251.411 285.24C251.535 285.008 251.66 284.92 251.927 284.92C255.797 284.932 259.661 284.926 263.531 284.926C263.643 284.926 263.755 284.926 263.942 284.926C260.333 290.388 256.755 295.813 253.14 301.281C256.668 301.281 260.134 301.281 263.705 301.281C254.148 311.817 244.647 322.283 235.146 332.749C235.128 332.736 235.109 332.724 235.09 332.711C239.234 324.6 243.384 316.494 247.547 308.345Z" fill="#00F0FF"/>
<path d="M240.69 328.649C241.549 327.701 242.352 326.816 243.154 325.937C248.032 328.04 252.948 328.191 257.851 326.157C262.038 324.417 265.168 321.46 267.234 317.398C271.496 309.029 268.882 298.205 260.265 292.95C260.9 291.989 261.534 291.029 262.206 290.012C268.466 294.174 272.118 299.913 272.659 307.472C273.325 316.676 268.329 324.65 261.105 328.473C254.385 332.027 247.572 331.933 240.69 328.649Z" fill="#00F0FF"/>
<path d="M238.569 322.943C238.034 323.991 237.499 325.04 236.958 326.088C231.221 321.606 227.382 313.117 229.354 304.158C231.507 294.401 239.807 287.589 249.016 286.898C248.979 286.993 248.947 287.074 248.904 287.15C248.332 288.248 247.765 289.353 247.174 290.446C247.1 290.578 246.938 290.716 246.795 290.747C241.873 291.915 238.015 294.621 235.247 298.884C233.635 301.364 232.696 304.101 232.416 307.058C231.943 312.15 233.293 316.702 236.466 320.689C237.032 321.405 237.711 322.032 238.339 322.698C238.414 322.786 238.488 322.855 238.569 322.943Z" fill="#00F0FF"/>
<g filter="url(#filter0_f_90_1483)">
<circle cx="459.702" cy="308.833" r="6.08921" fill="white"/>
</g>
<g filter="url(#filter1_f_90_1483)">
<circle cx="433.999" cy="262.398" r="6.08921" fill="white"/>
</g>
<g filter="url(#filter2_f_90_1483)">
<circle cx="303.03" cy="217.757" r="6.08921" fill="white"/>
</g>
<g filter="url(#filter3_f_90_1483)">
<circle cx="434.474" cy="353.685" r="6.08921" fill="white"/>
</g>
<g filter="url(#filter4_f_90_1483)">
<circle cx="513.581" cy="307.72" r="6.08921" fill="white"/>
</g>
<g filter="url(#filter5_f_90_1483)">
<circle cx="300.827" cy="397.152" r="6.08921" fill="white"/>
</g>
<g filter="url(#filter6_f_90_1483)">
<circle cx="226.064" cy="262.927" r="6.08921" fill="white"/>
</g>
</g>
<defs>
<filter id="filter0_f_90_1483" x="447.613" y="296.744" width="24.1785" height="24.1777" filterUnits="userSpaceOnUse" color-interpolation-filters="sRGB">
<feFlood flood-opacity="0" result="BackgroundImageFix"/>
<feBlend mode="normal" in="SourceGraphic" in2="BackgroundImageFix" result="shape"/>
<feGaussianBlur stdDeviation="3" result="effect1_foregroundBlur_90_1483"/>
</filter>
<filter id="filter1_f_90_1483" x="421.91" y="250.309" width="24.1785" height="24.1777" filterUnits="userSpaceOnUse" color-interpolation-filters="sRGB">
<feFlood flood-opacity="0" result="BackgroundImageFix"/>
<feBlend mode="normal" in="SourceGraphic" in2="BackgroundImageFix" result="shape"/>
<feGaussianBlur stdDeviation="3" result="effect1_foregroundBlur_90_1483"/>
</filter>
<filter id="filter2_f_90_1483" x="290.941" y="205.668" width="24.1785" height="24.1777" filterUnits="userSpaceOnUse" color-interpolation-filters="sRGB">
<feFlood flood-opacity="0" result="BackgroundImageFix"/>
<feBlend mode="normal" in="SourceGraphic" in2="BackgroundImageFix" result="shape"/>
<feGaussianBlur stdDeviation="3" result="effect1_foregroundBlur_90_1483"/>
</filter>
<filter id="filter3_f_90_1483" x="422.385" y="341.596" width="24.1785" height="24.1777" filterUnits="userSpaceOnUse" color-interpolation-filters="sRGB">
<feFlood flood-opacity="0" result="BackgroundImageFix"/>
<feBlend mode="normal" in="SourceGraphic" in2="BackgroundImageFix" result="shape"/>
<feGaussianBlur stdDeviation="3" result="effect1_foregroundBlur_90_1483"/>
</filter>
<filter id="filter4_f_90_1483" x="501.492" y="295.631" width="24.1785" height="24.1777" filterUnits="userSpaceOnUse" color-interpolation-filters="sRGB">
<feFlood flood-opacity="0" result="BackgroundImageFix"/>
<feBlend mode="normal" in="SourceGraphic" in2="BackgroundImageFix" result="shape"/>
<feGaussianBlur stdDeviation="3" result="effect1_foregroundBlur_90_1483"/>
</filter>
<filter id="filter5_f_90_1483" x="288.738" y="385.062" width="24.1785" height="24.1777" filterUnits="userSpaceOnUse" color-interpolation-filters="sRGB">
<feFlood flood-opacity="0" result="BackgroundImageFix"/>
<feBlend mode="normal" in="SourceGraphic" in2="BackgroundImageFix" result="shape"/>
<feGaussianBlur stdDeviation="3" result="effect1_foregroundBlur_90_1483"/>
</filter>
<filter id="filter6_f_90_1483" x="213.975" y="250.838" width="24.1785" height="24.1777" filterUnits="userSpaceOnUse" color-interpolation-filters="sRGB">
<feFlood flood-opacity="0" result="BackgroundImageFix"/>
<feBlend mode="normal" in="SourceGraphic" in2="BackgroundImageFix" result="shape"/>
<feGaussianBlur stdDeviation="3" result="effect1_foregroundBlur_90_1483"/>
</filter>
<clipPath id="clip0_90_1483">
<rect width="740" height="801" fill="white"/>
</clipPath>
</defs>
</svg>
